<svg width="43" height="43" viewBox="0 0 43 43" fill="none" xmlns="http://www.w3.org/2000/svg">
<circle cx="21.5" cy="21.5" r="21.5" fill="#FF8310"/>
<path d="M29.3744 18.7784C29.3744 18.7784 28.7907 26.0186 28.452 29.0683C28.2908 30.525 27.391 31.3785 25.9172 31.4054C23.1125 31.4559 20.3046 31.4591 17.501 31.4C16.0831 31.371 15.1984 30.5067 15.0403 29.0759C14.6996 25.9992 14.1191 18.7784 14.1191 18.7784M30.8614 15.3078H12.6316M27.3488 15.3078C26.5049 15.3078 25.7782 14.7112 25.6126 13.8845L25.3514 12.5773C25.1902 11.9742 24.6441 11.5571 24.0216 11.5571H19.4712C18.8487 11.5571 18.3026 11.9742 18.1414 12.5773L17.8802 13.8845C17.7146 14.7112 16.9879 15.3078 16.144 15.3078" stroke="white" stroke-width="1.3" stroke-linecap="round" stroke-linejoin="round"/>
</svg>
